<svg width="24" height="14" viewBox="0 0 24 14" fill="none" xmlns="http://www.w3.org/2000/svg">
<path d="M18.8572 5.14209C18.5181 5.14209 18.1867 5.24263 17.9048 5.431C17.6228 5.61937 17.4031 5.8871 17.2734 6.20035C17.1436 6.51359 17.1097 6.85828 17.1758 7.19082C17.242 7.52335 17.4052 7.82881 17.645 8.06856C17.8847 8.30831 18.1902 8.47158 18.5227 8.53772C18.8553 8.60387 19.2 8.56992 19.5132 8.44017C19.8264 8.31042 20.0942 8.09069 20.2825 7.80878C20.4709 7.52687 20.5715 7.19543 20.5715 6.85638C20.5715 6.40172 20.3908 5.96568 20.0693 5.64419C19.7479 5.3227 19.3118 5.14209 18.8572 5.14209Z" fill="white"/>
<path d="M12 10.2863C11.3219 10.2863 10.659 10.0853 10.0952 9.70853C9.53133 9.33179 9.09188 8.79632 8.83238 8.16983C8.57288 7.54334 8.50498 6.85397 8.63728 6.18889C8.76957 5.52381 9.09611 4.9129 9.5756 4.43341C10.0551 3.95391 10.666 3.62737 11.3311 3.49508C11.9962 3.36279 12.6855 3.43068 13.312 3.69019C13.9385 3.94969 14.474 4.38914 14.8507 4.95296C15.2275 5.51679 15.4285 6.17967 15.4285 6.85777C15.4274 7.76674 15.0658 8.63815 14.4231 9.28089C13.7803 9.92362 12.9089 10.2852 12 10.2863ZM12 5.14349C11.6609 5.14349 11.3295 5.24403 11.0476 5.4324C10.7657 5.62076 10.5459 5.8885 10.4162 6.20174C10.2864 6.51499 10.2525 6.85968 10.3186 7.19221C10.3848 7.52475 10.548 7.83021 10.7878 8.06996C11.0275 8.3097 11.333 8.47297 11.6655 8.53912C11.9981 8.60527 12.3428 8.57132 12.656 8.44157C12.9692 8.31182 13.237 8.09209 13.4253 7.81018C13.6137 7.52827 13.7143 7.19683 13.7143 6.85777C13.7138 6.40326 13.533 5.96748 13.2117 5.64609C12.8903 5.3247 12.4545 5.14394 12 5.14349Z" fill="white"/>
<path d="M5.14291 5.14209C4.80385 5.14209 4.47241 5.24263 4.1905 5.431C3.90859 5.61937 3.68886 5.8871 3.55911 6.20035C3.42936 6.51359 3.39541 6.85828 3.46156 7.19082C3.52771 7.52335 3.69098 7.82881 3.93072 8.06856C4.17047 8.30831 4.47593 8.47158 4.80847 8.53772C5.14101 8.60387 5.48569 8.56992 5.79894 8.44017C6.11218 8.31042 6.37992 8.09069 6.56828 7.80878C6.75665 7.52687 6.85719 7.19543 6.85719 6.85638C6.85719 6.40172 6.67658 5.96568 6.35509 5.64419C6.0336 5.3227 5.59756 5.14209 5.14291 5.14209Z" fill="white"/>
<path d="M22.2857 13.7143H1.71429C1.25998 13.7132 0.824606 13.5322 0.50336 13.2109C0.182114 12.8897 0.00113916 12.4543 7.62939e-06 12V1.71429C0.00113916 1.25998 0.182114 0.824598 0.50336 0.503352C0.824606 0.182106 1.25998 0.00113153 1.71429 0H22.2857C22.74 0.00113153 23.1754 0.182106 23.4967 0.503352C23.8179 0.824598 23.9989 1.25998 24 1.71429V12C23.9993 12.4544 23.8185 12.8901 23.4972 13.2114C23.1758 13.5328 22.7402 13.7136 22.2857 13.7143ZM22.2857 1.71429H1.71429V12H22.2857V1.71429Z" fill="white"/>
</svg>
